# xmcd
#
# Track frame offsets: 
#        150
#        11643
#        29247
#        43477
#        55355
#        74688
#        87015
#        104873
#        119825
#        135878
#        152122
#
# Disc length: 2297 seconds
#
# Revision: 0
# Processed by: cddbd v1.5.2PL0 Copyright (c) Steve Scherf et al.
# Submitted via: ExactAudioCopy v1.0b3
#
DISCID=a908f70b
DTITLE=Shanda and The Howlers - Trouble
DYEAR=2017
DGENRE=R&B
TTITLE0=Keep Telling Me
TTITLE1=She Don't Want A Man
TTITLE2=Trouble's Out To Play
TTITLE3=Don't Need Your Love
TTITLE4=Born With A Broken Heart
TTITLE5=Don't Wait Up
TTITLE6=Stay Awhile
TTITLE7=Mind Made Up
TTITLE8=Li'l Operator
TTITLE9=You're Gonna Cry
TTITLE10=Bad Love
EXTD=
EXTT0=
EXTT1=
EXTT2=
EXTT3=
EXTT4=
EXTT5=
EXTT6=
EXTT7=
EXTT8=
EXTT9=
EXTT10=
PLAYORDER=
